<mxfile host="app.diagrams.net" modified="2021-11-04T07:41:04.846Z" agent="5.0 (Windows NT 10.0; Win64; x64) AppleWebKit/537.36 (KHTML, like Gecko) Chrome/94.0.4606.71 Safari/537.36 Edg/94.0.992.38" etag="Ch73G3XVm1tcqCAdCJUi" version="15.6.8" type="github">
  <diagram id="lENlxFUdmtpFTnq6Koua" name="Page-1">
    <mxGraphModel dx="2062" dy="1122" grid="1" gridSize="10" guides="1" tooltips="1" connect="1" arrows="1" fold="1" page="1" pageScale="1" pageWidth="827" pageHeight="1169" math="0" shadow="0">
      <root>
        <mxCell id="0" />
        <mxCell id="1" parent="0" />
        <mxCell id="7EmApU87TOrAMEqmBo_j-1" value="pc" style="rounded=1;whiteSpace=wrap;html=1;" vertex="1" parent="1">
          <mxGeometry x="110" y="350" width="120" height="60" as="geometry" />
        </mxCell>
        <mxCell id="7EmApU87TOrAMEqmBo_j-6" value="" style="edgeStyle=orthogonalEdgeStyle;rounded=0;orthogonalLoop=1;jettySize=auto;html=1;" edge="1" parent="1" source="7EmApU87TOrAMEqmBo_j-2" target="7EmApU87TOrAMEqmBo_j-5">
          <mxGeometry relative="1" as="geometry" />
        </mxCell>
        <mxCell id="7EmApU87TOrAMEqmBo_j-2" value="xxx_test_callback" style="rounded=1;whiteSpace=wrap;html=1;" vertex="1" parent="1">
          <mxGeometry x="110" y="470" width="120" height="60" as="geometry" />
        </mxCell>
        <mxCell id="7EmApU87TOrAMEqmBo_j-3" value="" style="endArrow=classic;html=1;rounded=0;exitX=0.5;exitY=1;exitDx=0;exitDy=0;entryX=0.5;entryY=0;entryDx=0;entryDy=0;" edge="1" parent="1" source="7EmApU87TOrAMEqmBo_j-1" target="7EmApU87TOrAMEqmBo_j-2">
          <mxGeometry width="50" height="50" relative="1" as="geometry">
            <mxPoint x="390" y="600" as="sourcePoint" />
            <mxPoint x="440" y="550" as="targetPoint" />
          </mxGeometry>
        </mxCell>
        <mxCell id="7EmApU87TOrAMEqmBo_j-4" value="cmd" style="text;html=1;align=center;verticalAlign=middle;resizable=0;points=[];autosize=1;strokeColor=none;fillColor=none;" vertex="1" parent="1">
          <mxGeometry x="170" y="430" width="40" height="20" as="geometry" />
        </mxCell>
        <mxCell id="7EmApU87TOrAMEqmBo_j-9" value="" style="edgeStyle=orthogonalEdgeStyle;rounded=0;orthogonalLoop=1;jettySize=auto;html=1;" edge="1" parent="1" source="7EmApU87TOrAMEqmBo_j-5" target="7EmApU87TOrAMEqmBo_j-8">
          <mxGeometry relative="1" as="geometry" />
        </mxCell>
        <mxCell id="7EmApU87TOrAMEqmBo_j-5" value="app mailbox" style="whiteSpace=wrap;html=1;rounded=1;" vertex="1" parent="1">
          <mxGeometry x="370" y="470" width="120" height="60" as="geometry" />
        </mxCell>
        <mxCell id="7EmApU87TOrAMEqmBo_j-7" value="send_event_to_mailbox" style="text;html=1;align=center;verticalAlign=middle;resizable=0;points=[];autosize=1;strokeColor=none;fillColor=none;" vertex="1" parent="1">
          <mxGeometry x="230" y="470" width="140" height="20" as="geometry" />
        </mxCell>
        <mxCell id="7EmApU87TOrAMEqmBo_j-12" value="" style="edgeStyle=orthogonalEdgeStyle;rounded=0;orthogonalLoop=1;jettySize=auto;html=1;" edge="1" parent="1" source="7EmApU87TOrAMEqmBo_j-8" target="7EmApU87TOrAMEqmBo_j-11">
          <mxGeometry relative="1" as="geometry" />
        </mxCell>
        <mxCell id="7EmApU87TOrAMEqmBo_j-8" value="xxx_test_cmd_process" style="whiteSpace=wrap;html=1;rounded=1;" vertex="1" parent="1">
          <mxGeometry x="360" y="590" width="140" height="60" as="geometry" />
        </mxCell>
        <mxCell id="7EmApU87TOrAMEqmBo_j-10" value="register event callback" style="text;html=1;align=center;verticalAlign=middle;resizable=0;points=[];autosize=1;strokeColor=none;fillColor=none;" vertex="1" parent="1">
          <mxGeometry x="440" y="550" width="130" height="20" as="geometry" />
        </mxCell>
        <mxCell id="7EmApU87TOrAMEqmBo_j-11" value="i2cwrite&amp;amp;read or spi write&amp;amp;read" style="whiteSpace=wrap;html=1;rounded=1;" vertex="1" parent="1">
          <mxGeometry x="570" y="590" width="120" height="60" as="geometry" />
        </mxCell>
      </root>
    </mxGraphModel>
  </diagram>
</mxfile>
